<?xml version="1.0" encoding="utf-8" standalone="no"?>
<!DOCTYPE svg PUBLIC "-//W3C//DTD SVG 1.1//EN"
  "http://www.w3.org/Graphics/SVG/1.1/DTD/svg11.dtd">
<svg xmlns:xlink="http://www.w3.org/1999/xlink" width="416.205625pt" height="273.089812pt" viewBox="0 0 416.205625 273.089812" xmlns="http://www.w3.org/2000/svg" version="1.1">
 <metadata>
  <rdf:RDF xmlns:dc="http://purl.org/dc/elements/1.1/" xmlns:cc="http://creativecommons.org/ns#" xmlns:rdf="http://www.w3.org/1999/02/22-rdf-syntax-ns#">
   <cc:Work>
    <dc:type rdf:resource="http://purl.org/dc/dcmitype/StillImage"/>
    <dc:date>2026-04-21T02:17:14.108000</dc:date>
    <dc:format>image/svg+xml</dc:format>
    <dc:creator>
     <cc:Agent>
      <dc:title>Matplotlib v3.10.1, https://matplotlib.org/</dc:title>
     </cc:Agent>
    </dc:creator>
   </cc:Work>
  </rdf:RDF>
 </metadata>
 <defs>
  <style type="text/css">*{stroke-linejoin: round; stroke-linecap: butt}</style>
 </defs>
 <g id="figure_1">
  <g id="patch_1">
   <path d="M 0 273.089812 
L 416.205625 273.089812 
L 416.205625 0 
L 0 0 
z
" style="fill: #ffffff"/>
  </g>
  <g id="axes_1">
   <g id="patch_2">
    <path d="M 40.725625 233.752 
L 409.005625 233.752 
L 409.005625 23.08 
L 40.725625 23.08 
z
" style="fill: #ffffff"/>
   </g>
   <g id="FillBetweenPolyCollection_1">
    <defs>
     <path id="m4fca4a79dd" d="M 57.465625 -223.873209 
L 57.465625 -140.277302 
L 113.265625 -141.746072 
L 169.065625 -122.043188 
L 224.865625 -71.19989 
L 280.665625 -54.63225 
L 336.465625 -50.942963 
L 392.265625 -48.913812 
L 392.265625 -174.086581 
L 392.265625 -174.086581 
L 336.465625 -177.077961 
L 280.665625 -182.749871 
L 224.865625 -202.371887 
L 169.065625 -240.433812 
L 113.265625 -235.321845 
L 57.465625 -223.873209 
z
"/>
    </defs>
    <g clip-path="url(#pdabcfd3baf)">
     <use xlink:href="#m4fca4a79dd" x="0" y="273.089812" style="fill: #2563eb; fill-opacity: 0.18"/>
    </g>
   </g>
   <g id="matplotlib.axis_1">
    <g id="xtick_1">
     <g id="line2d_1">
      <path d="M 57.465625 233.752 
L 57.465625 23.08 
" clip-path="url(#pdabcfd3baf)" style="fill: none; stroke: #e9ecef; stroke-width: 0.6; stroke-linecap: square"/>
     </g>
     <g id="line2d_2">
      <defs>
       <path id="ma574b33657" d="M 0 0 
L 0 3.5 
" style="stroke: #6c757d; stroke-width: 0.8"/>
      </defs>
      <g>
       <use xlink:href="#ma574b33657" x="57.465625" y="233.752" style="fill: #6c757d; stroke: #6c757d; stroke-width: 0.8"/>
      </g>
     </g>
     <g id="text_1">
      <!-- $\mathdefault{10^{-6}}$ -->
      <g style="fill: #6c757d" transform="translate(47.715625 247.925437) scale(0.1 -0.1)">
       <defs>
        <path id="Helvetica-31" d="M 613 3169 
L 613 3600 
Q 1222 3659 1462 3798 
Q 1703 3938 1822 4456 
L 2266 4456 
L 2266 0 
L 1666 0 
L 1666 3169 
L 613 3169 
z
" transform="scale(0.015625)"/>
        <path id="Helvetica-30" d="M 1731 4475 
Q 2600 4475 2988 3759 
Q 3288 3206 3288 2244 
Q 3288 1331 3016 734 
Q 2622 -122 1728 -122 
Q 922 -122 528 578 
Q 200 1163 200 2147 
Q 200 2909 397 3456 
Q 766 4475 1731 4475 
z
M 1725 391 
Q 2163 391 2422 778 
Q 2681 1166 2681 2222 
Q 2681 2984 2493 3476 
Q 2306 3969 1766 3969 
Q 1269 3969 1039 3501 
Q 809 3034 809 2125 
Q 809 1441 956 1025 
Q 1181 391 1725 391 
z
" transform="scale(0.015625)"/>
        <path id="Helvetica-2212" d="M 3547 1894 
L 3547 1369 
L 288 1369 
L 288 1894 
L 3547 1894 
z
" transform="scale(0.015625)"/>
        <path id="Helvetica-36" d="M 1872 4494 
Q 2622 4494 2917 4105 
Q 3213 3716 3213 3303 
L 2656 3303 
Q 2606 3569 2497 3719 
Q 2294 4000 1881 4000 
Q 1409 4000 1131 3564 
Q 853 3128 822 2316 
Q 1016 2600 1309 2741 
Q 1578 2866 1909 2866 
Q 2472 2866 2890 2506 
Q 3309 2147 3309 1434 
Q 3309 825 2912 354 
Q 2516 -116 1781 -116 
Q 1153 -116 697 361 
Q 241 838 241 1966 
Q 241 2800 444 3381 
Q 834 4494 1872 4494 
z
M 1831 384 
Q 2275 384 2495 682 
Q 2716 981 2716 1388 
Q 2716 1731 2519 2042 
Q 2322 2353 1803 2353 
Q 1441 2353 1167 2112 
Q 894 1872 894 1388 
Q 894 963 1142 673 
Q 1391 384 1831 384 
z
" transform="scale(0.015625)"/>
       </defs>
       <use xlink:href="#Helvetica-31" transform="translate(0 0.239063)"/>
       <use xlink:href="#Helvetica-30" transform="translate(55.615234 0.239063)"/>
       <use xlink:href="#Helvetica-2212" transform="translate(112.145664 36.846875) scale(0.7)"/>
       <use xlink:href="#Helvetica-36" transform="translate(153.02457 36.846875) scale(0.7)"/>
      </g>
     </g>
    </g>
    <g id="xtick_2">
     <g id="line2d_3">
      <path d="M 113.265625 233.752 
L 113.265625 23.08 
" clip-path="url(#pdabcfd3baf)" style="fill: none; stroke: #e9ecef; stroke-width: 0.6; stroke-linecap: square"/>
     </g>
     <g id="line2d_4">
      <g>
       <use xlink:href="#ma574b33657" x="113.265625" y="233.752" style="fill: #6c757d; stroke: #6c757d; stroke-width: 0.8"/>
      </g>
     </g>
     <g id="text_2">
      <!-- $\mathdefault{10^{-5}}$ -->
      <g style="fill: #6c757d" transform="translate(103.515625 247.925437) scale(0.1 -0.1)">
       <defs>
        <path id="Helvetica-35" d="M 791 1141 
Q 847 659 1238 475 
Q 1438 381 1700 381 
Q 2200 381 2440 700 
Q 2681 1019 2681 1406 
Q 2681 1875 2395 2131 
Q 2109 2388 1709 2388 
Q 1419 2388 1211 2275 
Q 1003 2163 856 1963 
L 369 1991 
L 709 4400 
L 3034 4400 
L 3034 3856 
L 1131 3856 
L 941 2613 
Q 1097 2731 1238 2791 
Q 1488 2894 1816 2894 
Q 2431 2894 2859 2497 
Q 3288 2100 3288 1491 
Q 3288 856 2895 371 
Q 2503 -113 1644 -113 
Q 1097 -113 676 195 
Q 256 503 206 1141 
L 791 1141 
z
" transform="scale(0.015625)"/>
       </defs>
       <use xlink:href="#Helvetica-31" transform="translate(0 0.267188)"/>
       <use xlink:href="#Helvetica-30" transform="translate(55.615234 0.267188)"/>
       <use xlink:href="#Helvetica-2212" transform="translate(112.145664 36.875) scale(0.7)"/>
       <use xlink:href="#Helvetica-35" transform="translate(153.02457 36.875) scale(0.7)"/>
      </g>
     </g>
    </g>
    <g id="xtick_3">
     <g id="line2d_5">
      <path d="M 169.065625 233.752 
L 169.065625 23.08 
" clip-path="url(#pdabcfd3baf)" style="fill: none; stroke: #e9ecef; stroke-width: 0.6; stroke-linecap: square"/>
     </g>
     <g id="line2d_6">
      <g>
       <use xlink:href="#ma574b33657" x="169.065625" y="233.752" style="fill: #6c757d; stroke: #6c757d; stroke-width: 0.8"/>
      </g>
     </g>
     <g id="text_3">
      <!-- $\mathdefault{10^{-4}}$ -->
      <g style="fill: #6c757d" transform="translate(159.315625 247.925437) scale(0.1 -0.1)">
       <defs>
        <path id="Helvetica-34" d="M 2116 1584 
L 2116 3613 
L 681 1584 
L 2116 1584 
z
M 2125 0 
L 2125 1094 
L 163 1094 
L 163 1644 
L 2213 4488 
L 2688 4488 
L 2688 1584 
L 3347 1584 
L 3347 1094 
L 2688 1094 
L 2688 0 
L 2125 0 
z
" transform="scale(0.015625)"/>
       </defs>
       <use xlink:href="#Helvetica-31" transform="translate(0 0.304688)"/>
       <use xlink:href="#Helvetica-30" transform="translate(55.615234 0.304688)"/>
       <use xlink:href="#Helvetica-2212" transform="translate(112.145664 36.9125) scale(0.7)"/>
       <use xlink:href="#Helvetica-34" transform="translate(153.02457 36.9125) scale(0.7)"/>
      </g>
     </g>
    </g>
    <g id="xtick_4">
     <g id="line2d_7">
      <path d="M 224.865625 233.752 
L 224.865625 23.08 
" clip-path="url(#pdabcfd3baf)" style="fill: none; stroke: #e9ecef; stroke-width: 0.6; stroke-linecap: square"/>
     </g>
     <g id="line2d_8">
      <g>
       <use xlink:href="#ma574b33657" x="224.865625" y="233.752" style="fill: #6c757d; stroke: #6c757d; stroke-width: 0.8"/>
      </g>
     </g>
     <g id="text_4">
      <!-- $\mathdefault{10^{-3}}$ -->
      <g style="fill: #6c757d" transform="translate(215.115625 247.925437) scale(0.1 -0.1)">
       <defs>
        <path id="Helvetica-33" d="M 1663 -122 
Q 869 -122 511 314 
Q 153 750 153 1375 
L 741 1375 
Q 778 941 903 744 
Q 1122 391 1694 391 
Q 2138 391 2406 628 
Q 2675 866 2675 1241 
Q 2675 1703 2392 1887 
Q 2109 2072 1606 2072 
Q 1550 2072 1492 2070 
Q 1434 2069 1375 2066 
L 1375 2563 
Q 1463 2553 1522 2550 
Q 1581 2547 1650 2547 
Q 1966 2547 2169 2647 
Q 2525 2822 2525 3272 
Q 2525 3606 2287 3787 
Q 2050 3969 1734 3969 
Q 1172 3969 956 3594 
Q 838 3388 822 3006 
L 266 3006 
Q 266 3506 466 3856 
Q 809 4481 1675 4481 
Q 2359 4481 2734 4176 
Q 3109 3872 3109 3294 
Q 3109 2881 2888 2625 
Q 2750 2466 2531 2375 
Q 2884 2278 3082 2001 
Q 3281 1725 3281 1325 
Q 3281 684 2859 281 
Q 2438 -122 1663 -122 
z
" transform="scale(0.015625)"/>
       </defs>
       <use xlink:href="#Helvetica-31" transform="translate(0 0.38125)"/>
       <use xlink:href="#Helvetica-30" transform="translate(55.615234 0.38125)"/>
       <use xlink:href="#Helvetica-2212" transform="translate(112.145664 36.989063) scale(0.7)"/>
       <use xlink:href="#Helvetica-33" transform="translate(153.02457 36.989063) scale(0.7)"/>
      </g>
     </g>
    </g>
    <g id="xtick_5">
     <g id="line2d_9">
      <path d="M 280.665625 233.752 
L 280.665625 23.08 
" clip-path="url(#pdabcfd3baf)" style="fill: none; stroke: #e9ecef; stroke-width: 0.6; stroke-linecap: square"/>
     </g>
     <g id="line2d_10">
      <g>
       <use xlink:href="#ma574b33657" x="280.665625" y="233.752" style="fill: #6c757d; stroke: #6c757d; stroke-width: 0.8"/>
      </g>
     </g>
     <g id="text_5">
      <!-- $\mathdefault{10^{-2}}$ -->
      <g style="fill: #6c757d" transform="translate(270.915625 247.925437) scale(0.1 -0.1)">
       <defs>
        <path id="Helvetica-32" d="M 200 0 
Q 231 578 439 1006 
Q 647 1434 1250 1784 
L 1850 2131 
Q 2253 2366 2416 2531 
Q 2672 2791 2672 3125 
Q 2672 3516 2437 3745 
Q 2203 3975 1813 3975 
Q 1234 3975 1013 3538 
Q 894 3303 881 2888 
L 309 2888 
Q 319 3472 525 3841 
Q 891 4491 1816 4491 
Q 2584 4491 2939 4075 
Q 3294 3659 3294 3150 
Q 3294 2613 2916 2231 
Q 2697 2009 2131 1694 
L 1703 1456 
Q 1397 1288 1222 1134 
Q 909 863 828 531 
L 3272 531 
L 3272 0 
L 200 0 
z
" transform="scale(0.015625)"/>
       </defs>
       <use xlink:href="#Helvetica-31" transform="translate(0 0.271875)"/>
       <use xlink:href="#Helvetica-30" transform="translate(55.615234 0.271875)"/>
       <use xlink:href="#Helvetica-2212" transform="translate(112.145664 36.879688) scale(0.7)"/>
       <use xlink:href="#Helvetica-32" transform="translate(153.02457 36.879688) scale(0.7)"/>
      </g>
     </g>
    </g>
    <g id="xtick_6">
     <g id="line2d_11">
      <path d="M 336.465625 233.752 
L 336.465625 23.08 
" clip-path="url(#pdabcfd3baf)" style="fill: none; stroke: #e9ecef; stroke-width: 0.6; stroke-linecap: square"/>
     </g>
     <g id="line2d_12">
      <g>
       <use xlink:href="#ma574b33657" x="336.465625" y="233.752" style="fill: #6c757d; stroke: #6c757d; stroke-width: 0.8"/>
      </g>
     </g>
     <g id="text_6">
      <!-- $\mathdefault{10^{-1}}$ -->
      <g style="fill: #6c757d" transform="translate(326.715625 247.925437) scale(0.1 -0.1)">
       <use xlink:href="#Helvetica-31" transform="translate(0 0.654688)"/>
       <use xlink:href="#Helvetica-30" transform="translate(55.615234 0.654688)"/>
       <use xlink:href="#Helvetica-2212" transform="translate(112.145664 37.2625) scale(0.7)"/>
       <use xlink:href="#Helvetica-31" transform="translate(153.02457 37.2625) scale(0.7)"/>
      </g>
     </g>
    </g>
    <g id="xtick_7">
     <g id="line2d_13">
      <path d="M 392.265625 233.752 
L 392.265625 23.08 
" clip-path="url(#pdabcfd3baf)" style="fill: none; stroke: #e9ecef; stroke-width: 0.6; stroke-linecap: square"/>
     </g>
     <g id="line2d_14">
      <g>
       <use xlink:href="#ma574b33657" x="392.265625" y="233.752" style="fill: #6c757d; stroke: #6c757d; stroke-width: 0.8"/>
      </g>
     </g>
     <g id="text_7">
      <!-- $\mathdefault{10^{0}}$ -->
      <g style="fill: #6c757d" transform="translate(384.565625 247.925437) scale(0.1 -0.1)">
       <use xlink:href="#Helvetica-31" transform="translate(0 0.446875)"/>
       <use xlink:href="#Helvetica-30" transform="translate(55.615234 0.446875)"/>
       <use xlink:href="#Helvetica-30" transform="translate(112.145664 37.054688) scale(0.7)"/>
      </g>
     </g>
    </g>
    <g id="xtick_8">
     <g id="line2d_15">
      <defs>
       <path id="m78d392dd97" d="M 0 0 
L 0 2 
" style="stroke: #6c757d; stroke-width: 0.6"/>
      </defs>
      <g>
       <use xlink:href="#m78d392dd97" x="45.086465" y="233.752" style="fill: #6c757d; stroke: #6c757d; stroke-width: 0.6"/>
      </g>
     </g>
    </g>
    <g id="xtick_9">
     <g id="line2d_16">
      <g>
       <use xlink:href="#m78d392dd97" x="48.822096" y="233.752" style="fill: #6c757d; stroke: #6c757d; stroke-width: 0.6"/>
      </g>
     </g>
    </g>
    <g id="xtick_10">
     <g id="line2d_17">
      <g>
       <use xlink:href="#m78d392dd97" x="52.058046" y="233.752" style="fill: #6c757d; stroke: #6c757d; stroke-width: 0.6"/>
      </g>
     </g>
    </g>
    <g id="xtick_11">
     <g id="line2d_18">
      <g>
       <use xlink:href="#m78d392dd97" x="54.912357" y="233.752" style="fill: #6c757d; stroke: #6c757d; stroke-width: 0.6"/>
      </g>
     </g>
    </g>
    <g id="xtick_12">
     <g id="line2d_19">
      <g>
       <use xlink:href="#m78d392dd97" x="74.263099" y="233.752" style="fill: #6c757d; stroke: #6c757d; stroke-width: 0.6"/>
      </g>
     </g>
    </g>
    <g id="xtick_13">
     <g id="line2d_20">
      <g>
       <use xlink:href="#m78d392dd97" x="84.088991" y="233.752" style="fill: #6c757d; stroke: #6c757d; stroke-width: 0.6"/>
      </g>
     </g>
    </g>
    <g id="xtick_14">
     <g id="line2d_21">
      <g>
       <use xlink:href="#m78d392dd97" x="91.060573" y="233.752" style="fill: #6c757d; stroke: #6c757d; stroke-width: 0.6"/>
      </g>
     </g>
    </g>
    <g id="xtick_15">
     <g id="line2d_22">
      <g>
       <use xlink:href="#m78d392dd97" x="96.468151" y="233.752" style="fill: #6c757d; stroke: #6c757d; stroke-width: 0.6"/>
      </g>
     </g>
    </g>
    <g id="xtick_16">
     <g id="line2d_23">
      <g>
       <use xlink:href="#m78d392dd97" x="100.886465" y="233.752" style="fill: #6c757d; stroke: #6c757d; stroke-width: 0.6"/>
      </g>
     </g>
    </g>
    <g id="xtick_17">
     <g id="line2d_24">
      <g>
       <use xlink:href="#m78d392dd97" x="104.622096" y="233.752" style="fill: #6c757d; stroke: #6c757d; stroke-width: 0.6"/>
      </g>
     </g>
    </g>
    <g id="xtick_18">
     <g id="line2d_25">
      <g>
       <use xlink:href="#m78d392dd97" x="107.858046" y="233.752" style="fill: #6c757d; stroke: #6c757d; stroke-width: 0.6"/>
      </g>
     </g>
    </g>
    <g id="xtick_19">
     <g id="line2d_26">
      <g>
       <use xlink:href="#m78d392dd97" x="110.712357" y="233.752" style="fill: #6c757d; stroke: #6c757d; stroke-width: 0.6"/>
      </g>
     </g>
    </g>
    <g id="xtick_20">
     <g id="line2d_27">
      <g>
       <use xlink:href="#m78d392dd97" x="130.063099" y="233.752" style="fill: #6c757d; stroke: #6c757d; stroke-width: 0.6"/>
      </g>
     </g>
    </g>
    <g id="xtick_21">
     <g id="line2d_28">
      <g>
       <use xlink:href="#m78d392dd97" x="139.888991" y="233.752" style="fill: #6c757d; stroke: #6c757d; stroke-width: 0.6"/>
      </g>
     </g>
    </g>
    <g id="xtick_22">
     <g id="line2d_29">
      <g>
       <use xlink:href="#m78d392dd97" x="146.860573" y="233.752" style="fill: #6c757d; stroke: #6c757d; stroke-width: 0.6"/>
      </g>
     </g>
    </g>
    <g id="xtick_23">
     <g id="line2d_30">
      <g>
       <use xlink:href="#m78d392dd97" x="152.268151" y="233.752" style="fill: #6c757d; stroke: #6c757d; stroke-width: 0.6"/>
      </g>
     </g>
    </g>
    <g id="xtick_24">
     <g id="line2d_31">
      <g>
       <use xlink:href="#m78d392dd97" x="156.686465" y="233.752" style="fill: #6c757d; stroke: #6c757d; stroke-width: 0.6"/>
      </g>
     </g>
    </g>
    <g id="xtick_25">
     <g id="line2d_32">
      <g>
       <use xlink:href="#m78d392dd97" x="160.422096" y="233.752" style="fill: #6c757d; stroke: #6c757d; stroke-width: 0.6"/>
      </g>
     </g>
    </g>
    <g id="xtick_26">
     <g id="line2d_33">
      <g>
       <use xlink:href="#m78d392dd97" x="163.658046" y="233.752" style="fill: #6c757d; stroke: #6c757d; stroke-width: 0.6"/>
      </g>
     </g>
    </g>
    <g id="xtick_27">
     <g id="line2d_34">
      <g>
       <use xlink:href="#m78d392dd97" x="166.512357" y="233.752" style="fill: #6c757d; stroke: #6c757d; stroke-width: 0.6"/>
      </g>
     </g>
    </g>
    <g id="xtick_28">
     <g id="line2d_35">
      <g>
       <use xlink:href="#m78d392dd97" x="185.863099" y="233.752" style="fill: #6c757d; stroke: #6c757d; stroke-width: 0.6"/>
      </g>
     </g>
    </g>
    <g id="xtick_29">
     <g id="line2d_36">
      <g>
       <use xlink:href="#m78d392dd97" x="195.688991" y="233.752" style="fill: #6c757d; stroke: #6c757d; stroke-width: 0.6"/>
      </g>
     </g>
    </g>
    <g id="xtick_30">
     <g id="line2d_37">
      <g>
       <use xlink:href="#m78d392dd97" x="202.660573" y="233.752" style="fill: #6c757d; stroke: #6c757d; stroke-width: 0.6"/>
      </g>
     </g>
    </g>
    <g id="xtick_31">
     <g id="line2d_38">
      <g>
       <use xlink:href="#m78d392dd97" x="208.068151" y="233.752" style="fill: #6c757d; stroke: #6c757d; stroke-width: 0.6"/>
      </g>
     </g>
    </g>
    <g id="xtick_32">
     <g id="line2d_39">
      <g>
       <use xlink:href="#m78d392dd97" x="212.486465" y="233.752" style="fill: #6c757d; stroke: #6c757d; stroke-width: 0.6"/>
      </g>
     </g>
    </g>
    <g id="xtick_33">
     <g id="line2d_40">
      <g>
       <use xlink:href="#m78d392dd97" x="216.222096" y="233.752" style="fill: #6c757d; stroke: #6c757d; stroke-width: 0.6"/>
      </g>
     </g>
    </g>
    <g id="xtick_34">
     <g id="line2d_41">
      <g>
       <use xlink:href="#m78d392dd97" x="219.458046" y="233.752" style="fill: #6c757d; stroke: #6c757d; stroke-width: 0.6"/>
      </g>
     </g>
    </g>
    <g id="xtick_35">
     <g id="line2d_42">
      <g>
       <use xlink:href="#m78d392dd97" x="222.312357" y="233.752" style="fill: #6c757d; stroke: #6c757d; stroke-width: 0.6"/>
      </g>
     </g>
    </g>
    <g id="xtick_36">
     <g id="line2d_43">
      <g>
       <use xlink:href="#m78d392dd97" x="241.663099" y="233.752" style="fill: #6c757d; stroke: #6c757d; stroke-width: 0.6"/>
      </g>
     </g>
    </g>
    <g id="xtick_37">
     <g id="line2d_44">
      <g>
       <use xlink:href="#m78d392dd97" x="251.488991" y="233.752" style="fill: #6c757d; stroke: #6c757d; stroke-width: 0.6"/>
      </g>
     </g>
    </g>
    <g id="xtick_38">
     <g id="line2d_45">
      <g>
       <use xlink:href="#m78d392dd97" x="258.460573" y="233.752" style="fill: #6c757d; stroke: #6c757d; stroke-width: 0.6"/>
      </g>
     </g>
    </g>
    <g id="xtick_39">
     <g id="line2d_46">
      <g>
       <use xlink:href="#m78d392dd97" x="263.868151" y="233.752" style="fill: #6c757d; stroke: #6c757d; stroke-width: 0.6"/>
      </g>
     </g>
    </g>
    <g id="xtick_40">
     <g id="line2d_47">
      <g>
       <use xlink:href="#m78d392dd97" x="268.286465" y="233.752" style="fill: #6c757d; stroke: #6c757d; stroke-width: 0.6"/>
      </g>
     </g>
    </g>
    <g id="xtick_41">
     <g id="line2d_48">
      <g>
       <use xlink:href="#m78d392dd97" x="272.022096" y="233.752" style="fill: #6c757d; stroke: #6c757d; stroke-width: 0.6"/>
      </g>
     </g>
    </g>
    <g id="xtick_42">
     <g id="line2d_49">
      <g>
       <use xlink:href="#m78d392dd97" x="275.258046" y="233.752" style="fill: #6c757d; stroke: #6c757d; stroke-width: 0.6"/>
      </g>
     </g>
    </g>
    <g id="xtick_43">
     <g id="line2d_50">
      <g>
       <use xlink:href="#m78d392dd97" x="278.112357" y="233.752" style="fill: #6c757d; stroke: #6c757d; stroke-width: 0.6"/>
      </g>
     </g>
    </g>
    <g id="xtick_44">
     <g id="line2d_51">
      <g>
       <use xlink:href="#m78d392dd97" x="297.463099" y="233.752" style="fill: #6c757d; stroke: #6c757d; stroke-width: 0.6"/>
      </g>
     </g>
    </g>
    <g id="xtick_45">
     <g id="line2d_52">
      <g>
       <use xlink:href="#m78d392dd97" x="307.288991" y="233.752" style="fill: #6c757d; stroke: #6c757d; stroke-width: 0.6"/>
      </g>
     </g>
    </g>
    <g id="xtick_46">
     <g id="line2d_53">
      <g>
       <use xlink:href="#m78d392dd97" x="314.260573" y="233.752" style="fill: #6c757d; stroke: #6c757d; stroke-width: 0.6"/>
      </g>
     </g>
    </g>
    <g id="xtick_47">
     <g id="line2d_54">
      <g>
       <use xlink:href="#m78d392dd97" x="319.668151" y="233.752" style="fill: #6c757d; stroke: #6c757d; stroke-width: 0.6"/>
      </g>
     </g>
    </g>
    <g id="xtick_48">
     <g id="line2d_55">
      <g>
       <use xlink:href="#m78d392dd97" x="324.086465" y="233.752" style="fill: #6c757d; stroke: #6c757d; stroke-width: 0.6"/>
      </g>
     </g>
    </g>
    <g id="xtick_49">
     <g id="line2d_56">
      <g>
       <use xlink:href="#m78d392dd97" x="327.822096" y="233.752" style="fill: #6c757d; stroke: #6c757d; stroke-width: 0.6"/>
      </g>
     </g>
    </g>
    <g id="xtick_50">
     <g id="line2d_57">
      <g>
       <use xlink:href="#m78d392dd97" x="331.058046" y="233.752" style="fill: #6c757d; stroke: #6c757d; stroke-width: 0.6"/>
      </g>
     </g>
    </g>
    <g id="xtick_51">
     <g id="line2d_58">
      <g>
       <use xlink:href="#m78d392dd97" x="333.912357" y="233.752" style="fill: #6c757d; stroke: #6c757d; stroke-width: 0.6"/>
      </g>
     </g>
    </g>
    <g id="xtick_52">
     <g id="line2d_59">
      <g>
       <use xlink:href="#m78d392dd97" x="353.263099" y="233.752" style="fill: #6c757d; stroke: #6c757d; stroke-width: 0.6"/>
      </g>
     </g>
    </g>
    <g id="xtick_53">
     <g id="line2d_60">
      <g>
       <use xlink:href="#m78d392dd97" x="363.088991" y="233.752" style="fill: #6c757d; stroke: #6c757d; stroke-width: 0.6"/>
      </g>
     </g>
    </g>
    <g id="xtick_54">
     <g id="line2d_61">
      <g>
       <use xlink:href="#m78d392dd97" x="370.060573" y="233.752" style="fill: #6c757d; stroke: #6c757d; stroke-width: 0.6"/>
      </g>
     </g>
    </g>
    <g id="xtick_55">
     <g id="line2d_62">
      <g>
       <use xlink:href="#m78d392dd97" x="375.468151" y="233.752" style="fill: #6c757d; stroke: #6c757d; stroke-width: 0.6"/>
      </g>
     </g>
    </g>
    <g id="xtick_56">
     <g id="line2d_63">
      <g>
       <use xlink:href="#m78d392dd97" x="379.886465" y="233.752" style="fill: #6c757d; stroke: #6c757d; stroke-width: 0.6"/>
      </g>
     </g>
    </g>
    <g id="xtick_57">
     <g id="line2d_64">
      <g>
       <use xlink:href="#m78d392dd97" x="383.622096" y="233.752" style="fill: #6c757d; stroke: #6c757d; stroke-width: 0.6"/>
      </g>
     </g>
    </g>
    <g id="xtick_58">
     <g id="line2d_65">
      <g>
       <use xlink:href="#m78d392dd97" x="386.858046" y="233.752" style="fill: #6c757d; stroke: #6c757d; stroke-width: 0.6"/>
      </g>
     </g>
    </g>
    <g id="xtick_59">
     <g id="line2d_66">
      <g>
       <use xlink:href="#m78d392dd97" x="389.712357" y="233.752" style="fill: #6c757d; stroke: #6c757d; stroke-width: 0.6"/>
      </g>
     </g>
    </g>
    <g id="text_8">
     <!-- Tikhonov coefficient  $\lambda$  (log scale) -->
     <g style="fill: #212529" transform="translate(133.905625 263.129813) scale(0.12 -0.12)">
      <defs>
       <path id="Helvetica-54" d="M 3828 4591 
L 3828 4044 
L 2281 4044 
L 2281 0 
L 1650 0 
L 1650 4044 
L 103 4044 
L 103 4591 
L 3828 4591 
z
" transform="scale(0.015625)"/>
       <path id="Helvetica-69" d="M 413 3331 
L 984 3331 
L 984 0 
L 413 0 
L 413 3331 
z
M 413 4591 
L 984 4591 
L 984 3953 
L 413 3953 
L 413 4591 
z
" transform="scale(0.015625)"/>
       <path id="Helvetica-6b" d="M 400 4591 
L 941 4591 
L 941 1925 
L 2384 3347 
L 3103 3347 
L 1822 2094 
L 3175 0 
L 2456 0 
L 1413 1688 
L 941 1256 
L 941 0 
L 400 0 
L 400 4591 
z
" transform="scale(0.015625)"/>
       <path id="Helvetica-68" d="M 413 4606 
L 975 4606 
L 975 2894 
Q 1175 3147 1334 3250 
Q 1606 3428 2013 3428 
Q 2741 3428 3000 2919 
Q 3141 2641 3141 2147 
L 3141 0 
L 2563 0 
L 2563 2109 
Q 2563 2478 2469 2650 
Q 2316 2925 1894 2925 
Q 1544 2925 1259 2684 
Q 975 2444 975 1775 
L 975 0 
L 413 0 
L 413 4606 
z
" transform="scale(0.015625)"/>
       <path id="Helvetica-6f" d="M 1741 363 
Q 2300 363 2508 786 
Q 2716 1209 2716 1728 
Q 2716 2197 2566 2491 
Q 2328 2953 1747 2953 
Q 1231 2953 997 2559 
Q 763 2166 763 1609 
Q 763 1075 997 719 
Q 1231 363 1741 363 
z
M 1763 3444 
Q 2409 3444 2856 3012 
Q 3303 2581 3303 1744 
Q 3303 934 2909 406 
Q 2516 -122 1688 -122 
Q 997 -122 590 345 
Q 184 813 184 1600 
Q 184 2444 612 2944 
Q 1041 3444 1763 3444 
z
M 1744 3428 
L 1744 3428 
z
" transform="scale(0.015625)"/>
       <path id="Helvetica-6e" d="M 413 3347 
L 947 3347 
L 947 2872 
Q 1184 3166 1450 3294 
Q 1716 3422 2041 3422 
Q 2753 3422 3003 2925 
Q 3141 2653 3141 2147 
L 3141 0 
L 2569 0 
L 2569 2109 
Q 2569 2416 2478 2603 
Q 2328 2916 1934 2916 
Q 1734 2916 1606 2875 
Q 1375 2806 1200 2600 
Q 1059 2434 1017 2257 
Q 975 2081 975 1753 
L 975 0 
L 413 0 
L 413 3347 
z
M 1734 3428 
L 1734 3428 
z
" transform="scale(0.015625)"/>
       <path id="Helvetica-76" d="M 688 3347 
L 1581 622 
L 2516 3347 
L 3131 3347 
L 1869 0 
L 1269 0 
L 34 3347 
L 688 3347 
z
" transform="scale(0.015625)"/>
       <path id="Helvetica-20" transform="scale(0.015625)"/>
       <path id="Helvetica-63" d="M 1703 3444 
Q 2269 3444 2623 3169 
Q 2978 2894 3050 2222 
L 2503 2222 
Q 2453 2531 2275 2736 
Q 2097 2941 1703 2941 
Q 1166 2941 934 2416 
Q 784 2075 784 1575 
Q 784 1072 996 728 
Q 1209 384 1666 384 
Q 2016 384 2220 598 
Q 2425 813 2503 1184 
L 3050 1184 
Q 2956 519 2581 211 
Q 2206 -97 1622 -97 
Q 966 -97 575 383 
Q 184 863 184 1581 
Q 184 2463 612 2953 
Q 1041 3444 1703 3444 
z
M 1616 3428 
L 1616 3428 
z
" transform="scale(0.015625)"/>
       <path id="Helvetica-65" d="M 1806 3422 
Q 2163 3422 2497 3255 
Q 2831 3088 3006 2822 
Q 3175 2569 3231 2231 
Q 3281 2000 3281 1494 
L 828 1494 
Q 844 984 1069 676 
Q 1294 369 1766 369 
Q 2206 369 2469 659 
Q 2619 828 2681 1050 
L 3234 1050 
Q 3213 866 3089 639 
Q 2966 413 2813 269 
Q 2556 19 2178 -69 
Q 1975 -119 1719 -119 
Q 1094 -119 659 336 
Q 225 791 225 1609 
Q 225 2416 662 2919 
Q 1100 3422 1806 3422 
z
M 2703 1941 
Q 2669 2306 2544 2525 
Q 2313 2931 1772 2931 
Q 1384 2931 1121 2651 
Q 859 2372 844 1941 
L 2703 1941 
z
M 1753 3428 
L 1753 3428 
z
" transform="scale(0.015625)"/>
       <path id="Helvetica-66" d="M 553 3856 
Q 566 4206 675 4369 
Q 872 4656 1434 4656 
Q 1488 4656 1544 4653 
Q 1600 4650 1672 4644 
L 1672 4131 
Q 1584 4138 1545 4139 
Q 1506 4141 1472 4141 
Q 1216 4141 1166 4008 
Q 1116 3875 1116 3331 
L 1672 3331 
L 1672 2888 
L 1109 2888 
L 1109 0 
L 553 0 
L 553 2888 
L 88 2888 
L 88 3331 
L 553 3331 
L 553 3856 
z
" transform="scale(0.015625)"/>
       <path id="Helvetica-74" d="M 525 4281 
L 1094 4281 
L 1094 3347 
L 1628 3347 
L 1628 2888 
L 1094 2888 
L 1094 703 
Q 1094 528 1213 469 
Q 1278 434 1431 434 
Q 1472 434 1519 436 
Q 1566 438 1628 444 
L 1628 0 
Q 1531 -28 1426 -40 
Q 1322 -53 1200 -53 
Q 806 -53 665 148 
Q 525 350 525 672 
L 525 2888 
L 72 2888 
L 72 3347 
L 525 3347 
L 525 4281 
z
" transform="scale(0.015625)"/>
       <path id="DejaVuSans-Oblique-3bb" d="M 2350 4316 
L 3125 0 
L 2516 0 
L 2038 2588 
L 328 0 
L -281 0 
L 1903 3356 
L 1794 3975 
Q 1725 4369 1391 4369 
L 1091 4369 
L 1184 4863 
L 1550 4856 
Q 2253 4847 2350 4316 
z
" transform="scale(0.015625)"/>
       <path id="Helvetica-28" d="M 1894 4666 
Q 1403 3713 1256 3263 
Q 1034 2578 1034 1681 
Q 1034 775 1288 25 
Q 1444 -438 1903 -1306 
L 1525 -1306 
Q 1069 -594 959 -397 
Q 850 -200 722 138 
Q 547 600 478 1125 
Q 444 1397 444 1644 
Q 444 2569 734 3291 
Q 919 3750 1503 4666 
L 1894 4666 
z
" transform="scale(0.015625)"/>
       <path id="Helvetica-6c" d="M 428 4591 
L 991 4591 
L 991 0 
L 428 0 
L 428 4591 
z
" transform="scale(0.015625)"/>
       <path id="Helvetica-67" d="M 1594 3406 
Q 1988 3406 2281 3213 
Q 2441 3103 2606 2894 
L 2606 3316 
L 3125 3316 
L 3125 272 
Q 3125 -366 2938 -734 
Q 2588 -1416 1616 -1416 
Q 1075 -1416 706 -1173 
Q 338 -931 294 -416 
L 866 -416 
Q 906 -641 1028 -763 
Q 1219 -950 1628 -950 
Q 2275 -950 2475 -494 
Q 2594 -225 2584 466 
Q 2416 209 2178 84 
Q 1941 -41 1550 -41 
Q 1006 -41 598 345 
Q 191 731 191 1622 
Q 191 2463 602 2934 
Q 1013 3406 1594 3406 
z
M 2606 1688 
Q 2606 2309 2350 2609 
Q 2094 2909 1697 2909 
Q 1103 2909 884 2353 
Q 769 2056 769 1575 
Q 769 1009 998 714 
Q 1228 419 1616 419 
Q 2222 419 2469 966 
Q 2606 1275 2606 1688 
z
M 1659 3428 
L 1659 3428 
z
" transform="scale(0.015625)"/>
       <path id="Helvetica-73" d="M 747 1050 
Q 772 769 888 619 
Q 1100 347 1625 347 
Q 1938 347 2175 483 
Q 2413 619 2413 903 
Q 2413 1119 2222 1231 
Q 2100 1300 1741 1391 
L 1294 1503 
Q 866 1609 663 1741 
Q 300 1969 300 2372 
Q 300 2847 642 3140 
Q 984 3434 1563 3434 
Q 2319 3434 2653 2991 
Q 2863 2709 2856 2384 
L 2325 2384 
Q 2309 2575 2191 2731 
Q 1997 2953 1519 2953 
Q 1200 2953 1036 2831 
Q 872 2709 872 2509 
Q 872 2291 1088 2159 
Q 1213 2081 1456 2022 
L 1828 1931 
Q 2434 1784 2641 1647 
Q 2969 1431 2969 969 
Q 2969 522 2630 197 
Q 2291 -128 1597 -128 
Q 850 -128 539 211 
Q 228 550 206 1050 
L 747 1050 
z
M 1578 3428 
L 1578 3428 
z
" transform="scale(0.015625)"/>
       <path id="Helvetica-61" d="M 844 891 
Q 844 647 1022 506 
Q 1200 366 1444 366 
Q 1741 366 2019 503 
Q 2488 731 2488 1250 
L 2488 1703 
Q 2384 1638 2221 1594 
Q 2059 1550 1903 1531 
L 1563 1488 
Q 1256 1447 1103 1359 
Q 844 1213 844 891 
z
M 2206 2028 
Q 2400 2053 2466 2191 
Q 2503 2266 2503 2406 
Q 2503 2694 2298 2823 
Q 2094 2953 1713 2953 
Q 1272 2953 1088 2716 
Q 984 2584 953 2325 
L 428 2325 
Q 444 2944 830 3186 
Q 1216 3428 1725 3428 
Q 2316 3428 2684 3203 
Q 3050 2978 3050 2503 
L 3050 575 
Q 3050 488 3086 434 
Q 3122 381 3238 381 
Q 3275 381 3322 386 
Q 3369 391 3422 400 
L 3422 -16 
Q 3291 -53 3222 -62 
Q 3153 -72 3034 -72 
Q 2744 -72 2613 134 
Q 2544 244 2516 444 
Q 2344 219 2022 53 
Q 1700 -113 1313 -113 
Q 847 -113 551 170 
Q 256 453 256 878 
Q 256 1344 547 1600 
Q 838 1856 1309 1916 
L 2206 2028 
z
M 1741 3428 
L 1741 3428 
z
" transform="scale(0.015625)"/>
       <path id="Helvetica-29" d="M 222 -1306 
Q 719 -338 863 106 
Q 1081 778 1081 1681 
Q 1081 2584 828 3334 
Q 672 3797 213 4666 
L 591 4666 
Q 1072 3897 1173 3717 
Q 1275 3538 1394 3222 
Q 1544 2831 1608 2450 
Q 1672 2069 1672 1716 
Q 1672 791 1378 66 
Q 1194 -400 613 -1306 
L 222 -1306 
z
" transform="scale(0.015625)"/>
      </defs>
      <use xlink:href="#Helvetica-54" transform="translate(0 0.015625)"/>
      <use xlink:href="#Helvetica-69" transform="translate(61.083984 0.015625)"/>
      <use xlink:href="#Helvetica-6b" transform="translate(83.300781 0.015625)"/>
      <use xlink:href="#Helvetica-68" transform="translate(133.300781 0.015625)"/>
      <use xlink:href="#Helvetica-6f" transform="translate(188.916016 0.015625)"/>
      <use xlink:href="#Helvetica-6e" transform="translate(244.53125 0.015625)"/>
      <use xlink:href="#Helvetica-6f" transform="translate(300.146484 0.015625)"/>
      <use xlink:href="#Helvetica-76" transform="translate(355.761719 0.015625)"/>
      <use xlink:href="#Helvetica-20" transform="translate(405.761719 0.015625)"/>
      <use xlink:href="#Helvetica-63" transform="translate(433.544922 0.015625)"/>
      <use xlink:href="#Helvetica-6f" transform="translate(483.544922 0.015625)"/>
      <use xlink:href="#Helvetica-65" transform="translate(539.160156 0.015625)"/>
      <use xlink:href="#Helvetica-66" transform="translate(594.775391 0.015625)"/>
      <use xlink:href="#Helvetica-66" transform="translate(622.558594 0.015625)"/>
      <use xlink:href="#Helvetica-69" transform="translate(650.341797 0.015625)"/>
      <use xlink:href="#Helvetica-63" transform="translate(672.558594 0.015625)"/>
      <use xlink:href="#Helvetica-69" transform="translate(722.558594 0.015625)"/>
      <use xlink:href="#Helvetica-65" transform="translate(744.775391 0.015625)"/>
      <use xlink:href="#Helvetica-6e" transform="translate(800.390625 0.015625)"/>
      <use xlink:href="#Helvetica-74" transform="translate(856.005859 0.015625)"/>
      <use xlink:href="#Helvetica-20" transform="translate(883.789062 0.015625)"/>
      <use xlink:href="#Helvetica-20" transform="translate(911.572266 0.015625)"/>
      <use xlink:href="#DejaVuSans-Oblique-3bb" transform="translate(939.355469 0.015625)"/>
      <use xlink:href="#Helvetica-20" transform="translate(998.535156 0.015625)"/>
      <use xlink:href="#Helvetica-20" transform="translate(1026.318359 0.015625)"/>
      <use xlink:href="#Helvetica-28" transform="translate(1054.101562 0.015625)"/>
      <use xlink:href="#Helvetica-6c" transform="translate(1087.402344 0.015625)"/>
      <use xlink:href="#Helvetica-6f" transform="translate(1109.619141 0.015625)"/>
      <use xlink:href="#Helvetica-67" transform="translate(1165.234375 0.015625)"/>
      <use xlink:href="#Helvetica-20" transform="translate(1220.849609 0.015625)"/>
      <use xlink:href="#Helvetica-73" transform="translate(1248.632812 0.015625)"/>
      <use xlink:href="#Helvetica-63" transform="translate(1298.632812 0.015625)"/>
      <use xlink:href="#Helvetica-61" transform="translate(1348.632812 0.015625)"/>
      <use xlink:href="#Helvetica-6c" transform="translate(1404.248047 0.015625)"/>
      <use xlink:href="#Helvetica-65" transform="translate(1426.464844 0.015625)"/>
      <use xlink:href="#Helvetica-29" transform="translate(1482.080078 0.015625)"/>
     </g>
    </g>
   </g>
   <g id="matplotlib.axis_2">
    <g id="ytick_1">
     <g id="line2d_67">
      <path d="M 40.725625 194.406103 
L 409.005625 194.406103 
" clip-path="url(#pdabcfd3baf)" style="fill: none; stroke: #e9ecef; stroke-width: 0.6; stroke-linecap: square"/>
     </g>
     <g id="line2d_68">
      <defs>
       <path id="m16c12a8f00" d="M 0 0 
L -3.5 0 
" style="stroke: #6c757d; stroke-width: 0.8"/>
      </defs>
      <g>
       <use xlink:href="#m16c12a8f00" x="40.725625" y="194.406103" style="fill: #6c757d; stroke: #6c757d; stroke-width: 0.8"/>
      </g>
     </g>
     <g id="text_9">
      <!-- 30 -->
      <g style="fill: #6c757d" transform="translate(22.60375 197.992821) scale(0.1 -0.1)">
       <use xlink:href="#Helvetica-33"/>
       <use xlink:href="#Helvetica-30" transform="translate(55.615234 0)"/>
      </g>
     </g>
    </g>
    <g id="ytick_2">
     <g id="line2d_69">
      <path d="M 40.725625 152.56835 
L 409.005625 152.56835 
" clip-path="url(#pdabcfd3baf)" style="fill: none; stroke: #e9ecef; stroke-width: 0.6; stroke-linecap: square"/>
     </g>
     <g id="line2d_70">
      <g>
       <use xlink:href="#m16c12a8f00" x="40.725625" y="152.56835" style="fill: #6c757d; stroke: #6c757d; stroke-width: 0.8"/>
      </g>
     </g>
     <g id="text_10">
      <!-- 40 -->
      <g style="fill: #6c757d" transform="translate(22.60375 156.155069) scale(0.1 -0.1)">
       <use xlink:href="#Helvetica-34"/>
       <use xlink:href="#Helvetica-30" transform="translate(55.615234 0)"/>
      </g>
     </g>
    </g>
    <g id="ytick_3">
     <g id="line2d_71">
      <path d="M 40.725625 110.730598 
L 409.005625 110.730598 
" clip-path="url(#pdabcfd3baf)" style="fill: none; stroke: #e9ecef; stroke-width: 0.6; stroke-linecap: square"/>
     </g>
     <g id="line2d_72">
      <g>
       <use xlink:href="#m16c12a8f00" x="40.725625" y="110.730598" style="fill: #6c757d; stroke: #6c757d; stroke-width: 0.8"/>
      </g>
     </g>
     <g id="text_11">
      <!-- 50 -->
      <g style="fill: #6c757d" transform="translate(22.60375 114.317317) scale(0.1 -0.1)">
       <use xlink:href="#Helvetica-35"/>
       <use xlink:href="#Helvetica-30" transform="translate(55.615234 0)"/>
      </g>
     </g>
    </g>
    <g id="ytick_4">
     <g id="line2d_73">
      <path d="M 40.725625 68.892845 
L 409.005625 68.892845 
" clip-path="url(#pdabcfd3baf)" style="fill: none; stroke: #e9ecef; stroke-width: 0.6; stroke-linecap: square"/>
     </g>
     <g id="line2d_74">
      <g>
       <use xlink:href="#m16c12a8f00" x="40.725625" y="68.892845" style="fill: #6c757d; stroke: #6c757d; stroke-width: 0.8"/>
      </g>
     </g>
     <g id="text_12">
      <!-- 60 -->
      <g style="fill: #6c757d" transform="translate(22.60375 72.479564) scale(0.1 -0.1)">
       <use xlink:href="#Helvetica-36"/>
       <use xlink:href="#Helvetica-30" transform="translate(55.615234 0)"/>
      </g>
     </g>
    </g>
    <g id="ytick_5">
     <g id="line2d_75">
      <path d="M 40.725625 27.055093 
L 409.005625 27.055093 
" clip-path="url(#pdabcfd3baf)" style="fill: none; stroke: #e9ecef; stroke-width: 0.6; stroke-linecap: square"/>
     </g>
     <g id="line2d_76">
      <g>
       <use xlink:href="#m16c12a8f00" x="40.725625" y="27.055093" style="fill: #6c757d; stroke: #6c757d; stroke-width: 0.8"/>
      </g>
     </g>
     <g id="text_13">
      <!-- 70 -->
      <g style="fill: #6c757d" transform="translate(22.60375 30.641812) scale(0.1 -0.1)">
       <defs>
        <path id="Helvetica-37" d="M 3347 4400 
L 3347 3909 
Q 3131 3700 2773 3181 
Q 2416 2663 2141 2063 
Q 1869 1478 1728 997 
Q 1638 688 1494 0 
L 872 0 
Q 1084 1281 1809 2550 
Q 2238 3294 2709 3834 
L 234 3834 
L 234 4400 
L 3347 4400 
z
" transform="scale(0.015625)"/>
       </defs>
       <use xlink:href="#Helvetica-37"/>
       <use xlink:href="#Helvetica-30" transform="translate(55.615234 0)"/>
      </g>
     </g>
    </g>
    <g id="text_14">
     <!-- Avg. accuracy (%) -->
     <g style="fill: #212529" transform="translate(15.94875 177.093813) rotate(-90) scale(0.12 -0.12)">
      <defs>
       <path id="Helvetica-41" d="M 2844 1881 
L 2147 3909 
L 1406 1881 
L 2844 1881 
z
M 1822 4591 
L 2525 4591 
L 4191 0 
L 3509 0 
L 3044 1375 
L 1228 1375 
L 731 0 
L 94 0 
L 1822 4591 
z
" transform="scale(0.015625)"/>
       <path id="Helvetica-2e" d="M 547 681 
L 1200 681 
L 1200 0 
L 547 0 
L 547 681 
z
" transform="scale(0.015625)"/>
       <path id="Helvetica-75" d="M 975 3347 
L 975 1125 
Q 975 869 1056 706 
Q 1206 406 1616 406 
Q 2203 406 2416 931 
Q 2531 1213 2531 1703 
L 2531 3347 
L 3094 3347 
L 3094 0 
L 2563 0 
L 2569 494 
Q 2459 303 2297 172 
Q 1975 -91 1516 -91 
Q 800 -91 541 388 
Q 400 644 400 1072 
L 400 3347 
L 975 3347 
z
M 1747 3428 
L 1747 3428 
z
" transform="scale(0.015625)"/>
       <path id="Helvetica-72" d="M 428 3347 
L 963 3347 
L 963 2769 
Q 1028 2938 1284 3180 
Q 1541 3422 1875 3422 
Q 1891 3422 1928 3419 
Q 1966 3416 2056 3406 
L 2056 2813 
Q 2006 2822 1964 2825 
Q 1922 2828 1872 2828 
Q 1447 2828 1219 2554 
Q 991 2281 991 1925 
L 991 0 
L 428 0 
L 428 3347 
z
" transform="scale(0.015625)"/>
       <path id="Helvetica-79" d="M 2503 3347 
L 3125 3347 
Q 3006 3025 2597 1878 
Q 2291 1016 2084 472 
Q 1597 -809 1397 -1090 
Q 1197 -1372 709 -1372 
Q 591 -1372 527 -1362 
Q 463 -1353 369 -1328 
L 369 -816 
Q 516 -856 581 -865 
Q 647 -875 697 -875 
Q 853 -875 926 -823 
Q 1000 -772 1050 -697 
Q 1066 -672 1162 -440 
Q 1259 -209 1303 -97 
L 66 3347 
L 703 3347 
L 1600 622 
L 2503 3347 
z
M 1597 3428 
L 1597 3428 
z
" transform="scale(0.015625)"/>
       <path id="Helvetica-25" d="M 4363 2175 
Q 4813 2175 5131 1856 
Q 5450 1538 5450 1088 
Q 5450 638 5131 319 
Q 4813 0 4363 0 
Q 3909 0 3590 319 
Q 3272 638 3272 1088 
Q 3272 1538 3590 1856 
Q 3909 2175 4363 2175 
z
M 3909 4456 
L 4256 4456 
L 1753 -119 
L 1406 -119 
L 3909 4456 
z
M 1294 2606 
Q 1563 2606 1752 2795 
Q 1941 2984 1941 3250 
Q 1941 3516 1752 3705 
Q 1563 3894 1294 3894 
Q 1028 3894 839 3706 
Q 650 3519 650 3250 
Q 650 2984 839 2795 
Q 1028 2606 1294 2606 
z
M 1294 4341 
Q 1747 4341 2065 4020 
Q 2384 3700 2384 3250 
Q 2384 2800 2065 2481 
Q 1747 2163 1294 2163 
Q 844 2163 525 2481 
Q 206 2800 206 3250 
Q 206 3700 525 4020 
Q 844 4341 1294 4341 
z
M 4363 444 
Q 4628 444 4817 633 
Q 5006 822 5006 1088 
Q 5006 1353 4817 1542 
Q 4628 1731 4363 1731 
Q 4094 1731 3905 1542 
Q 3716 1353 3716 1088 
Q 3716 822 3905 633 
Q 4094 444 4363 444 
z
" transform="scale(0.015625)"/>
      </defs>
      <use xlink:href="#Helvetica-41"/>
      <use xlink:href="#Helvetica-76" transform="translate(66.699219 0)"/>
      <use xlink:href="#Helvetica-67" transform="translate(116.699219 0)"/>
      <use xlink:href="#Helvetica-2e" transform="translate(172.314453 0)"/>
      <use xlink:href="#Helvetica-20" transform="translate(200.097656 0)"/>
      <use xlink:href="#Helvetica-61" transform="translate(227.880859 0)"/>
      <use xlink:href="#Helvetica-63" transform="translate(283.496094 0)"/>
      <use xlink:href="#Helvetica-63" transform="translate(333.496094 0)"/>
      <use xlink:href="#Helvetica-75" transform="translate(383.496094 0)"/>
      <use xlink:href="#Helvetica-72" transform="translate(439.111328 0)"/>
      <use xlink:href="#Helvetica-61" transform="translate(472.412109 0)"/>
      <use xlink:href="#Helvetica-63" transform="translate(528.027344 0)"/>
      <use xlink:href="#Helvetica-79" transform="translate(578.027344 0)"/>
      <use xlink:href="#Helvetica-20" transform="translate(628.027344 0)"/>
      <use xlink:href="#Helvetica-28" transform="translate(655.810547 0)"/>
      <use xlink:href="#Helvetica-25" transform="translate(689.111328 0)"/>
      <use xlink:href="#Helvetica-29" transform="translate(778.027344 0)"/>
     </g>
    </g>
   </g>
   <g id="line2d_77">
    <path d="M 57.465625 91.014557 
L 113.265625 84.555854 
L 169.065625 91.851312 
L 224.865625 136.303924 
L 280.665625 154.398752 
L 336.465625 159.07935 
L 392.265625 161.589616 
" clip-path="url(#pdabcfd3baf)" style="fill: none; stroke: #2563eb; stroke-width: 1.8; stroke-linecap: square"/>
    <defs>
     <path id="me3fd7db1c5" d="M 0 2.5 
C 0.663008 2.5 1.29895 2.236584 1.767767 1.767767 
C 2.236584 1.29895 2.5 0.663008 2.5 0 
C 2.5 -0.663008 2.236584 -1.29895 1.767767 -1.767767 
C 1.29895 -2.236584 0.663008 -2.5 0 -2.5 
C -0.663008 -2.5 -1.29895 -2.236584 -1.767767 -1.767767 
C -2.236584 -1.29895 -2.5 -0.663008 -2.5 0 
C -2.5 0.663008 -2.236584 1.29895 -1.767767 1.767767 
C -1.29895 2.236584 -0.663008 2.5 0 2.5 
z
" style="stroke: #2563eb"/>
    </defs>
    <g clip-path="url(#pdabcfd3baf)">
     <use xlink:href="#me3fd7db1c5" x="57.465625" y="91.014557" style="fill: #2563eb; stroke: #2563eb"/>
     <use xlink:href="#me3fd7db1c5" x="113.265625" y="84.555854" style="fill: #2563eb; stroke: #2563eb"/>
     <use xlink:href="#me3fd7db1c5" x="169.065625" y="91.851312" style="fill: #2563eb; stroke: #2563eb"/>
     <use xlink:href="#me3fd7db1c5" x="224.865625" y="136.303924" style="fill: #2563eb; stroke: #2563eb"/>
     <use xlink:href="#me3fd7db1c5" x="280.665625" y="154.398752" style="fill: #2563eb; stroke: #2563eb"/>
     <use xlink:href="#me3fd7db1c5" x="336.465625" y="159.07935" style="fill: #2563eb; stroke: #2563eb"/>
     <use xlink:href="#me3fd7db1c5" x="392.265625" y="161.589616" style="fill: #2563eb; stroke: #2563eb"/>
    </g>
   </g>
   <g id="line2d_78">
    <path d="M 40.725625 93.080296 
L 409.005625 93.080296 
" clip-path="url(#pdabcfd3baf)" style="fill: none; stroke-dasharray: 4.44,1.92; stroke-dashoffset: 0; stroke: #059669; stroke-width: 1.2"/>
   </g>
   <g id="line2d_79">
    <path d="M 40.725625 162.374073 
L 409.005625 162.374073 
" clip-path="url(#pdabcfd3baf)" style="fill: none; stroke-dasharray: 1.2,1.98; stroke-dashoffset: 0; stroke: #adb5bd; stroke-width: 1.2"/>
   </g>
   <g id="patch_3">
    <path d="M 40.725625 233.752 
L 40.725625 23.08 
" style="fill: none; stroke: #495057; stroke-width: 0.8; stroke-linejoin: miter; stroke-linecap: square"/>
   </g>
   <g id="patch_4">
    <path d="M 40.725625 233.752 
L 409.005625 233.752 
" style="fill: none; stroke: #495057; stroke-width: 0.8; stroke-linejoin: miter; stroke-linecap: square"/>
   </g>
   <g id="text_15">
    <g id="patch_5">
     <path d="M 303.327681 52.337943 
L 401.640025 52.337943 
Q 404.340025 52.337943 404.340025 49.637943 
L 404.340025 31.391568 
Q 404.340025 28.691568 401.640025 28.691568 
L 303.327681 28.691568 
Q 300.627681 28.691568 300.627681 31.391568 
L 300.627681 49.637943 
Q 300.627681 52.337943 303.327681 52.337943 
z
" style="fill: #fef3c7; stroke: #dc2626; stroke-width: 0.6; stroke-linejoin: miter"/>
    </g>
    <!-- λ=0: unregularized Eq. 7 -->
    <g style="fill: #dc2626" transform="translate(303.327681 38.023443) scale(0.09 -0.09)">
     <defs>
      <path id="Helvetica-3bb" d="M 609 4600 
Q 738 4634 928 4634 
Q 1253 4634 1416 4466 
Q 1575 4294 1716 3909 
L 3006 722 
Q 3053 628 3116 544 
Q 3181 459 3284 459 
L 3444 459 
L 3444 0 
L 3116 0 
Q 2656 0 2484 475 
L 1703 2534 
L 738 0 
L 116 0 
L 1428 3219 
L 1197 3834 
Q 1075 4147 813 4134 
L 609 4134 
L 609 4600 
z
" transform="scale(0.015625)"/>
      <path id="Helvetica-3d" d="M 3547 2569 
L 3547 2044 
L 288 2044 
L 288 2569 
L 3547 2569 
z
M 3547 1228 
L 3547 694 
L 288 694 
L 288 1228 
L 3547 1228 
z
" transform="scale(0.015625)"/>
      <path id="Helvetica-3a" d="M 709 3303 
L 1363 3303 
L 1363 2622 
L 709 2622 
L 709 3303 
z
M 709 681 
L 1363 681 
L 1363 0 
L 709 0 
L 709 681 
z
" transform="scale(0.015625)"/>
      <path id="Helvetica-7a" d="M 163 444 
L 2147 2844 
L 309 2844 
L 309 3347 
L 2903 3347 
L 2903 2888 
L 931 503 
L 2963 503 
L 2963 0 
L 163 0 
L 163 444 
z
M 1609 3428 
L 1609 3428 
z
" transform="scale(0.015625)"/>
      <path id="Helvetica-64" d="M 769 1634 
Q 769 1097 997 734 
Q 1225 372 1728 372 
Q 2119 372 2370 708 
Q 2622 1044 2622 1672 
Q 2622 2306 2362 2611 
Q 2103 2916 1722 2916 
Q 1297 2916 1033 2591 
Q 769 2266 769 1634 
z
M 1616 3406 
Q 2000 3406 2259 3244 
Q 2409 3150 2600 2916 
L 2600 4606 
L 3141 4606 
L 3141 0 
L 2634 0 
L 2634 466 
Q 2438 156 2169 18 
Q 1900 -119 1553 -119 
Q 994 -119 584 351 
Q 175 822 175 1603 
Q 175 2334 548 2870 
Q 922 3406 1616 3406 
z
" transform="scale(0.015625)"/>
      <path id="Helvetica-45" d="M 547 4591 
L 3894 4591 
L 3894 4028 
L 1153 4028 
L 1153 2634 
L 3688 2634 
L 3688 2103 
L 1153 2103 
L 1153 547 
L 3941 547 
L 3941 0 
L 547 0 
L 547 4591 
z
M 2244 4591 
L 2244 4591 
z
" transform="scale(0.015625)"/>
      <path id="Helvetica-71" d="M 775 1628 
Q 775 1194 897 900 
Q 1113 378 1669 378 
Q 2256 378 2478 928 
Q 2600 1231 2600 1703 
Q 2600 2138 2466 2428 
Q 2238 2925 1663 2925 
Q 1297 2925 1036 2608 
Q 775 2291 775 1628 
z
M 1606 3422 
Q 2022 3422 2306 3213 
Q 2463 3100 2606 2881 
L 2606 3347 
L 3141 3347 
L 3141 -1334 
L 2575 -1334 
L 2575 384 
Q 2434 159 2186 26 
Q 1938 -106 1566 -106 
Q 1031 -106 609 312 
Q 188 731 188 1588 
Q 188 2391 583 2906 
Q 978 3422 1606 3422 
z
" transform="scale(0.015625)"/>
     </defs>
     <use xlink:href="#Helvetica-3bb"/>
     <use xlink:href="#Helvetica-3d" transform="translate(55.615234 0)"/>
     <use xlink:href="#Helvetica-30" transform="translate(114.013672 0)"/>
     <use xlink:href="#Helvetica-3a" transform="translate(169.628906 0)"/>
     <use xlink:href="#Helvetica-20" transform="translate(197.412109 0)"/>
     <use xlink:href="#Helvetica-75" transform="translate(225.195312 0)"/>
     <use xlink:href="#Helvetica-6e" transform="translate(280.810547 0)"/>
     <use xlink:href="#Helvetica-72" transform="translate(336.425781 0)"/>
     <use xlink:href="#Helvetica-65" transform="translate(369.726562 0)"/>
     <use xlink:href="#Helvetica-67" transform="translate(425.341797 0)"/>
     <use xlink:href="#Helvetica-75" transform="translate(480.957031 0)"/>
     <use xlink:href="#Helvetica-6c" transform="translate(536.572266 0)"/>
     <use xlink:href="#Helvetica-61" transform="translate(558.789062 0)"/>
     <use xlink:href="#Helvetica-72" transform="translate(614.404297 0)"/>
     <use xlink:href="#Helvetica-69" transform="translate(647.705078 0)"/>
     <use xlink:href="#Helvetica-7a" transform="translate(669.921875 0)"/>
     <use xlink:href="#Helvetica-65" transform="translate(719.921875 0)"/>
     <use xlink:href="#Helvetica-64" transform="translate(775.537109 0)"/>
     <use xlink:href="#Helvetica-20" transform="translate(831.152344 0)"/>
     <use xlink:href="#Helvetica-45" transform="translate(858.935547 0)"/>
     <use xlink:href="#Helvetica-71" transform="translate(925.634766 0)"/>
     <use xlink:href="#Helvetica-2e" transform="translate(981.25 0)"/>
     <use xlink:href="#Helvetica-20" transform="translate(1009.033203 0)"/>
     <use xlink:href="#Helvetica-37" transform="translate(1036.816406 0)"/>
    </g>
    <!-- collapses to 11.0% -->
    <g style="fill: #dc2626" transform="translate(326.097681 47.762005) scale(0.09 -0.09)">
     <defs>
      <path id="Helvetica-70" d="M 1825 378 
Q 2219 378 2480 708 
Q 2741 1038 2741 1694 
Q 2741 2094 2625 2381 
Q 2406 2934 1825 2934 
Q 1241 2934 1025 2350 
Q 909 2038 909 1556 
Q 909 1169 1025 897 
Q 1244 378 1825 378 
z
M 369 3331 
L 916 3331 
L 916 2888 
Q 1084 3116 1284 3241 
Q 1569 3428 1953 3428 
Q 2522 3428 2919 2992 
Q 3316 2556 3316 1747 
Q 3316 653 2744 184 
Q 2381 -113 1900 -113 
Q 1522 -113 1266 53 
Q 1116 147 931 375 
L 931 -1334 
L 369 -1334 
L 369 3331 
z
" transform="scale(0.015625)"/>
     </defs>
     <use xlink:href="#Helvetica-63"/>
     <use xlink:href="#Helvetica-6f" transform="translate(50 0)"/>
     <use xlink:href="#Helvetica-6c" transform="translate(105.615234 0)"/>
     <use xlink:href="#Helvetica-6c" transform="translate(127.832031 0)"/>
     <use xlink:href="#Helvetica-61" transform="translate(150.048828 0)"/>
     <use xlink:href="#Helvetica-70" transform="translate(205.664062 0)"/>
     <use xlink:href="#Helvetica-73" transform="translate(261.279297 0)"/>
     <use xlink:href="#Helvetica-65" transform="translate(311.279297 0)"/>
     <use xlink:href="#Helvetica-73" transform="translate(366.894531 0)"/>
     <use xlink:href="#Helvetica-20" transform="translate(416.894531 0)"/>
     <use xlink:href="#Helvetica-74" transform="translate(444.677734 0)"/>
     <use xlink:href="#Helvetica-6f" transform="translate(472.460938 0)"/>
     <use xlink:href="#Helvetica-20" transform="translate(528.076172 0)"/>
     <use xlink:href="#Helvetica-31" transform="translate(555.859375 0)"/>
     <use xlink:href="#Helvetica-31" transform="translate(611.474609 0)"/>
     <use xlink:href="#Helvetica-2e" transform="translate(667.089844 0)"/>
     <use xlink:href="#Helvetica-30" transform="translate(694.873047 0)"/>
     <use xlink:href="#Helvetica-25" transform="translate(750.488281 0)"/>
    </g>
   </g>
   <g id="text_16">
    <!-- HTCL-A sensitivity to the ensemble-mean anchor strength $\lambda$ -->
    <g transform="translate(52.290625 17.08) scale(0.13 -0.13)">
     <defs>
      <path id="Helvetica-48" d="M 503 4591 
L 1131 4591 
L 1131 2694 
L 3519 2694 
L 3519 4591 
L 4147 4591 
L 4147 0 
L 3519 0 
L 3519 2147 
L 1131 2147 
L 1131 0 
L 503 0 
L 503 4591 
z
" transform="scale(0.015625)"/>
      <path id="Helvetica-43" d="M 2422 4716 
Q 3294 4716 3775 4256 
Q 4256 3797 4309 3213 
L 3703 3213 
Q 3600 3656 3292 3915 
Q 2984 4175 2428 4175 
Q 1750 4175 1333 3698 
Q 916 3222 916 2238 
Q 916 1431 1292 929 
Q 1669 428 2416 428 
Q 3103 428 3463 956 
Q 3653 1234 3747 1688 
L 4353 1688 
Q 4272 963 3816 472 
Q 3269 -119 2341 -119 
Q 1541 -119 997 366 
Q 281 1006 281 2344 
Q 281 3359 819 4009 
Q 1400 4716 2422 4716 
z
M 2297 4716 
L 2297 4716 
z
" transform="scale(0.015625)"/>
      <path id="Helvetica-4c" d="M 488 4591 
L 1109 4591 
L 1109 547 
L 3434 547 
L 3434 0 
L 488 0 
L 488 4591 
z
" transform="scale(0.015625)"/>
      <path id="Helvetica-2d" d="M 266 2072 
L 1834 2072 
L 1834 1494 
L 266 1494 
L 266 2072 
z
" transform="scale(0.015625)"/>
      <path id="Helvetica-6d" d="M 413 3347 
L 969 3347 
L 969 2872 
Q 1169 3119 1331 3231 
Q 1609 3422 1963 3422 
Q 2363 3422 2606 3225 
Q 2744 3113 2856 2894 
Q 3044 3163 3297 3292 
Q 3550 3422 3866 3422 
Q 4541 3422 4784 2934 
Q 4916 2672 4916 2228 
L 4916 0 
L 4331 0 
L 4331 2325 
Q 4331 2659 4164 2784 
Q 3997 2909 3756 2909 
Q 3425 2909 3186 2687 
Q 2947 2466 2947 1947 
L 2947 0 
L 2375 0 
L 2375 2184 
Q 2375 2525 2294 2681 
Q 2166 2916 1816 2916 
Q 1497 2916 1236 2669 
Q 975 2422 975 1775 
L 975 0 
L 413 0 
L 413 3347 
z
" transform="scale(0.015625)"/>
      <path id="Helvetica-62" d="M 369 4606 
L 916 4606 
L 916 2941 
Q 1100 3181 1356 3307 
Q 1613 3434 1913 3434 
Q 2538 3434 2927 3004 
Q 3316 2575 3316 1738 
Q 3316 944 2931 419 
Q 2547 -106 1866 -106 
Q 1484 -106 1222 78 
Q 1066 188 888 428 
L 888 0 
L 369 0 
L 369 4606 
z
M 1831 391 
Q 2288 391 2514 753 
Q 2741 1116 2741 1709 
Q 2741 2238 2514 2584 
Q 2288 2931 1847 2931 
Q 1463 2931 1173 2647 
Q 884 2363 884 1709 
Q 884 1238 1003 944 
Q 1225 391 1831 391 
z
" transform="scale(0.015625)"/>
     </defs>
     <use xlink:href="#Helvetica-48" transform="translate(0 0.015625)"/>
     <use xlink:href="#Helvetica-54" transform="translate(72.216797 0.015625)"/>
     <use xlink:href="#Helvetica-43" transform="translate(133.300781 0.015625)"/>
     <use xlink:href="#Helvetica-4c" transform="translate(205.517578 0.015625)"/>
     <use xlink:href="#Helvetica-2d" transform="translate(261.132812 0.015625)"/>
     <use xlink:href="#Helvetica-41" transform="translate(294.433594 0.015625)"/>
     <use xlink:href="#Helvetica-20" transform="translate(361.132812 0.015625)"/>
     <use xlink:href="#Helvetica-73" transform="translate(388.916016 0.015625)"/>
     <use xlink:href="#Helvetica-65" transform="translate(438.916016 0.015625)"/>
     <use xlink:href="#Helvetica-6e" transform="translate(494.53125 0.015625)"/>
     <use xlink:href="#Helvetica-73" transform="translate(550.146484 0.015625)"/>
     <use xlink:href="#Helvetica-69" transform="translate(600.146484 0.015625)"/>
     <use xlink:href="#Helvetica-74" transform="translate(622.363281 0.015625)"/>
     <use xlink:href="#Helvetica-69" transform="translate(650.146484 0.015625)"/>
     <use xlink:href="#Helvetica-76" transform="translate(672.363281 0.015625)"/>
     <use xlink:href="#Helvetica-69" transform="translate(722.363281 0.015625)"/>
     <use xlink:href="#Helvetica-74" transform="translate(744.580078 0.015625)"/>
     <use xlink:href="#Helvetica-79" transform="translate(772.363281 0.015625)"/>
     <use xlink:href="#Helvetica-20" transform="translate(822.363281 0.015625)"/>
     <use xlink:href="#Helvetica-74" transform="translate(850.146484 0.015625)"/>
     <use xlink:href="#Helvetica-6f" transform="translate(877.929688 0.015625)"/>
     <use xlink:href="#Helvetica-20" transform="translate(933.544922 0.015625)"/>
     <use xlink:href="#Helvetica-74" transform="translate(961.328125 0.015625)"/>
     <use xlink:href="#Helvetica-68" transform="translate(989.111328 0.015625)"/>
     <use xlink:href="#Helvetica-65" transform="translate(1044.726562 0.015625)"/>
     <use xlink:href="#Helvetica-20" transform="translate(1100.341797 0.015625)"/>
     <use xlink:href="#Helvetica-65" transform="translate(1128.125 0.015625)"/>
     <use xlink:href="#Helvetica-6e" transform="translate(1183.740234 0.015625)"/>
     <use xlink:href="#Helvetica-73" transform="translate(1239.355469 0.015625)"/>
     <use xlink:href="#Helvetica-65" transform="translate(1289.355469 0.015625)"/>
     <use xlink:href="#Helvetica-6d" transform="translate(1344.970703 0.015625)"/>
     <use xlink:href="#Helvetica-62" transform="translate(1428.271484 0.015625)"/>
     <use xlink:href="#Helvetica-6c" transform="translate(1483.886719 0.015625)"/>
     <use xlink:href="#Helvetica-65" transform="translate(1506.103516 0.015625)"/>
     <use xlink:href="#Helvetica-2d" transform="translate(1561.71875 0.015625)"/>
     <use xlink:href="#Helvetica-6d" transform="translate(1595.019531 0.015625)"/>
     <use xlink:href="#Helvetica-65" transform="translate(1678.320312 0.015625)"/>
     <use xlink:href="#Helvetica-61" transform="translate(1733.935547 0.015625)"/>
     <use xlink:href="#Helvetica-6e" transform="translate(1789.550781 0.015625)"/>
     <use xlink:href="#Helvetica-20" transform="translate(1845.166016 0.015625)"/>
     <use xlink:href="#Helvetica-61" transform="translate(1872.949219 0.015625)"/>
     <use xlink:href="#Helvetica-6e" transform="translate(1928.564453 0.015625)"/>
     <use xlink:href="#Helvetica-63" transform="translate(1984.179688 0.015625)"/>
     <use xlink:href="#Helvetica-68" transform="translate(2034.179688 0.015625)"/>
     <use xlink:href="#Helvetica-6f" transform="translate(2089.794922 0.015625)"/>
     <use xlink:href="#Helvetica-72" transform="translate(2145.410156 0.015625)"/>
     <use xlink:href="#Helvetica-20" transform="translate(2178.710938 0.015625)"/>
     <use xlink:href="#Helvetica-73" transform="translate(2206.494141 0.015625)"/>
     <use xlink:href="#Helvetica-74" transform="translate(2256.494141 0.015625)"/>
     <use xlink:href="#Helvetica-72" transform="translate(2284.277344 0.015625)"/>
     <use xlink:href="#Helvetica-65" transform="translate(2317.578125 0.015625)"/>
     <use xlink:href="#Helvetica-6e" transform="translate(2373.193359 0.015625)"/>
     <use xlink:href="#Helvetica-67" transform="translate(2428.808594 0.015625)"/>
     <use xlink:href="#Helvetica-74" transform="translate(2484.423828 0.015625)"/>
     <use xlink:href="#Helvetica-68" transform="translate(2512.207031 0.015625)"/>
     <use xlink:href="#Helvetica-20" transform="translate(2567.822266 0.015625)"/>
     <use xlink:href="#DejaVuSans-Oblique-3bb" transform="translate(2595.605469 0.015625)"/>
    </g>
   </g>
   <g id="legend_1">
    <g id="line2d_80">
     <path d="M 49.725625 190.255125 
L 59.725625 190.255125 
L 69.725625 190.255125 
" style="fill: none; stroke: #2563eb; stroke-width: 1.8; stroke-linecap: square"/>
     <g>
      <use xlink:href="#me3fd7db1c5" x="59.725625" y="190.255125" style="fill: #2563eb; stroke: #2563eb"/>
     </g>
    </g>
    <g id="text_17">
     <!-- HTCL-A -->
     <g transform="translate(77.725625 193.755125) scale(0.1 -0.1)">
      <use xlink:href="#Helvetica-48"/>
      <use xlink:href="#Helvetica-54" transform="translate(72.216797 0)"/>
      <use xlink:href="#Helvetica-43" transform="translate(133.300781 0)"/>
      <use xlink:href="#Helvetica-4c" transform="translate(205.517578 0)"/>
      <use xlink:href="#Helvetica-2d" transform="translate(261.132812 0)"/>
      <use xlink:href="#Helvetica-41" transform="translate(294.433594 0)"/>
     </g>
    </g>
    <g id="line2d_81">
     <path d="M 49.725625 204.586375 
L 59.725625 204.586375 
L 69.725625 204.586375 
" style="fill: none; stroke-dasharray: 4.44,1.92; stroke-dashoffset: 0; stroke: #059669; stroke-width: 1.2"/>
    </g>
    <g id="text_18">
     <!-- Fisher (54.2) -->
     <g transform="translate(77.725625 208.086375) scale(0.1 -0.1)">
      <defs>
       <path id="Helvetica-46" d="M 547 4591 
L 3731 4591 
L 3731 4028 
L 1169 4028 
L 1169 2634 
L 3422 2634 
L 3422 2088 
L 1169 2088 
L 1169 0 
L 547 0 
L 547 4591 
z
" transform="scale(0.015625)"/>
      </defs>
      <use xlink:href="#Helvetica-46"/>
      <use xlink:href="#Helvetica-69" transform="translate(61.083984 0)"/>
      <use xlink:href="#Helvetica-73" transform="translate(83.300781 0)"/>
      <use xlink:href="#Helvetica-68" transform="translate(133.300781 0)"/>
      <use xlink:href="#Helvetica-65" transform="translate(188.916016 0)"/>
      <use xlink:href="#Helvetica-72" transform="translate(244.53125 0)"/>
      <use xlink:href="#Helvetica-20" transform="translate(277.832031 0)"/>
      <use xlink:href="#Helvetica-28" transform="translate(305.615234 0)"/>
      <use xlink:href="#Helvetica-35" transform="translate(338.916016 0)"/>
      <use xlink:href="#Helvetica-34" transform="translate(394.53125 0)"/>
      <use xlink:href="#Helvetica-2e" transform="translate(450.146484 0)"/>
      <use xlink:href="#Helvetica-32" transform="translate(477.929688 0)"/>
      <use xlink:href="#Helvetica-29" transform="translate(533.544922 0)"/>
     </g>
    </g>
    <g id="line2d_82">
     <path d="M 49.725625 219.0395 
L 59.725625 219.0395 
L 69.725625 219.0395 
" style="fill: none; stroke-dasharray: 1.2,1.98; stroke-dashoffset: 0; stroke: #adb5bd; stroke-width: 1.2"/>
    </g>
    <g id="text_19">
     <!-- Simple Avg (37.7) -->
     <g transform="translate(77.725625 222.5395) scale(0.1 -0.1)">
      <defs>
       <path id="Helvetica-53" d="M 894 1481 
Q 916 1091 1078 847 
Q 1388 391 2169 391 
Q 2519 391 2806 491 
Q 3363 684 3363 1184 
Q 3363 1559 3128 1719 
Q 2891 1875 2384 1991 
L 1763 2131 
Q 1153 2269 900 2434 
Q 463 2722 463 3294 
Q 463 3913 891 4309 
Q 1319 4706 2103 4706 
Q 2825 4706 3329 4357 
Q 3834 4009 3834 3244 
L 3250 3244 
Q 3203 3613 3050 3809 
Q 2766 4169 2084 4169 
Q 1534 4169 1293 3937 
Q 1053 3706 1053 3400 
Q 1053 3063 1334 2906 
Q 1519 2806 2169 2656 
L 2813 2509 
Q 3278 2403 3531 2219 
Q 3969 1897 3969 1284 
Q 3969 522 3414 194 
Q 2859 -134 2125 -134 
Q 1269 -134 784 303 
Q 300 738 309 1481 
L 894 1481 
z
M 2150 4716 
L 2150 4716 
z
" transform="scale(0.015625)"/>
      </defs>
      <use xlink:href="#Helvetica-53"/>
      <use xlink:href="#Helvetica-69" transform="translate(66.699219 0)"/>
      <use xlink:href="#Helvetica-6d" transform="translate(88.916016 0)"/>
      <use xlink:href="#Helvetica-70" transform="translate(172.216797 0)"/>
      <use xlink:href="#Helvetica-6c" transform="translate(227.832031 0)"/>
      <use xlink:href="#Helvetica-65" transform="translate(250.048828 0)"/>
      <use xlink:href="#Helvetica-20" transform="translate(305.664062 0)"/>
      <use xlink:href="#Helvetica-41" transform="translate(333.447266 0)"/>
      <use xlink:href="#Helvetica-76" transform="translate(400.146484 0)"/>
      <use xlink:href="#Helvetica-67" transform="translate(450.146484 0)"/>
      <use xlink:href="#Helvetica-20" transform="translate(505.761719 0)"/>
      <use xlink:href="#Helvetica-28" transform="translate(533.544922 0)"/>
      <use xlink:href="#Helvetica-33" transform="translate(566.845703 0)"/>
      <use xlink:href="#Helvetica-37" transform="translate(622.460938 0)"/>
      <use xlink:href="#Helvetica-2e" transform="translate(678.076172 0)"/>
      <use xlink:href="#Helvetica-37" transform="translate(705.859375 0)"/>
      <use xlink:href="#Helvetica-29" transform="translate(761.474609 0)"/>
     </g>
    </g>
   </g>
  </g>
 </g>
 <defs>
  <clipPath id="pdabcfd3baf">
   <rect x="40.725625" y="23.08" width="368.28" height="210.672"/>
  </clipPath>
 </defs>
</svg>
